<svg xmlns="http://www.w3.org/2000/svg" xmlns:xlink="http://www.w3.org/1999/xlink" width="512" zoomAndPan="magnify" viewBox="0 0 384 383.999986" height="512" preserveAspectRatio="xMidYMid meet" version="1.0"><defs><clipPath id="2cdd15b49f"><path d="M 13 2.976562 L 321 2.976562 L 321 310 L 13 310 Z M 13 2.976562 " clip-rule="nonzero"/></clipPath><clipPath id="b97cb589de"><path d="M 6.042969 40 L 375 40 L 375 380.976562 L 6.042969 380.976562 Z M 6.042969 40 " clip-rule="nonzero"/></clipPath></defs><g clip-path="url(#2cdd15b49f)"><path fill="#8cc546" d="M 121.089844 289.59375 L 212.078125 289.59375 L 212.078125 201.960938 L 299.742188 201.960938 L 299.742188 111.007812 L 212.078125 111.007812 L 212.078125 23.371094 L 121.089844 23.371094 L 121.089844 111.007812 L 33.421875 111.007812 L 33.421875 201.960938 L 121.089844 201.960938 Z M 215.476562 309.996094 L 117.6875 309.996094 C 108.308594 309.996094 100.675781 302.371094 100.675781 292.996094 L 100.675781 222.363281 L 30.019531 222.363281 C 20.640625 222.363281 13.011719 214.734375 13.011719 205.359375 L 13.011719 107.605469 C 13.011719 98.234375 20.640625 90.605469 30.019531 90.605469 L 100.675781 90.605469 L 100.675781 19.972656 C 100.675781 10.597656 108.308594 2.972656 117.6875 2.972656 L 215.476562 2.972656 C 224.855469 2.972656 232.484375 10.597656 232.484375 19.972656 L 232.484375 90.605469 L 303.140625 90.605469 C 312.519531 90.605469 320.152344 98.234375 320.152344 107.605469 L 320.152344 205.359375 C 320.152344 214.734375 312.519531 222.363281 303.140625 222.363281 L 232.484375 222.363281 L 232.484375 292.996094 C 232.484375 302.371094 224.855469 309.996094 215.476562 309.996094 " fill-opacity="1" fill-rule="nonzero"/></g><path fill="#414042" d="M 35.011719 313.902344 C 28.046875 313.902344 22.402344 319.546875 22.402344 326.507812 C 22.402344 333.46875 28.046875 339.113281 35.011719 339.113281 C 41.972656 339.113281 47.621094 333.46875 47.621094 326.507812 C 47.621094 319.546875 41.972656 313.902344 35.011719 313.902344 " fill-opacity="1" fill-rule="nonzero"/><g clip-path="url(#b97cb589de)"><path fill="#1875c1" d="M 354.828125 354.847656 C 348.945312 362.960938 334.449219 365.402344 323.820312 365.042969 C 257.519531 362.722656 201.347656 322.234375 181.191406 263.285156 C 181.316406 263.273438 181.4375 263.261719 181.558594 263.25 C 232.519531 258.179688 286.136719 271.628906 328.65625 300.140625 C 337.3125 305.933594 348.015625 313.976562 353.996094 324.761719 C 358.761719 333.34375 360.671875 346.804688 354.828125 354.847656 Z M 35.011719 343.863281 C 25.4375 343.863281 17.648438 336.078125 17.648438 326.507812 C 17.648438 316.9375 25.4375 309.15625 35.011719 309.15625 C 38.3125 309.15625 41.386719 310.097656 44.015625 311.699219 C 44.199219 313.207031 44.816406 314.683594 45.886719 315.925781 C 47.101562 317.339844 48.714844 318.214844 50.417969 318.539062 C 51.660156 320.929688 52.371094 323.632812 52.371094 326.507812 C 52.371094 336.078125 44.585938 343.863281 35.011719 343.863281 Z M 367.910156 317.046875 C 360.277344 303.289062 347.660156 293.722656 337.515625 286.925781 C 291.308594 255.949219 235.363281 241.910156 179.996094 247.417969 C 178.949219 247.523438 177.890625 247.636719 176.820312 247.753906 C 174.8125 238.773438 173.65625 229.570312 173.34375 220.28125 L 181.417969 207.824219 C 210.628906 191.226562 228.78125 150.074219 230.9375 144.988281 C 232.1875 142.039062 232.058594 138.863281 230.859375 136.148438 C 239.042969 113.488281 243.347656 90.707031 245.550781 74.871094 C 246.640625 67.035156 244.285156 59.117188 239.085938 53.140625 C 233.875 47.160156 226.335938 43.726562 218.402344 43.726562 L 212.027344 43.726562 C 210.089844 41.996094 207.542969 40.929688 204.746094 40.929688 L 195.59375 40.929688 C 189.5625 40.929688 184.65625 45.835938 184.65625 51.863281 C 184.65625 57.894531 189.5625 62.800781 195.59375 62.800781 L 204.746094 62.800781 C 207.734375 62.800781 210.453125 61.589844 212.429688 59.632812 L 218.402344 59.632812 C 221.78125 59.632812 224.867188 61.039062 227.082031 63.585938 C 229.292969 66.121094 230.253906 69.351562 229.789062 72.679688 C 227.703125 87.683594 223.65625 109.308594 216.027344 130.542969 C 213.597656 131.660156 211.558594 133.644531 210.425781 136.296875 C 206.652344 145.203125 196.328125 164.859375 183.050781 178.390625 L 147.566406 178.390625 C 134.308594 164.863281 123.953125 145.207031 120.15625 136.292969 C 119.027344 133.640625 116.984375 131.660156 114.558594 130.542969 C 106.929688 109.308594 102.882812 87.683594 100.796875 72.679688 C 100.332031 69.351562 101.292969 66.121094 103.503906 63.585938 C 105.722656 61.039062 108.804688 59.632812 112.183594 59.632812 L 118.15625 59.632812 C 120.132812 61.589844 122.847656 62.800781 125.839844 62.800781 L 134.992188 62.800781 C 141.023438 62.800781 145.929688 57.894531 145.929688 51.863281 C 145.929688 45.835938 141.023438 40.929688 134.992188 40.929688 L 125.839844 40.929688 C 123.042969 40.929688 120.496094 41.996094 118.558594 43.726562 L 112.183594 43.726562 C 104.25 43.726562 96.710938 47.160156 91.5 53.140625 C 86.300781 59.109375 83.941406 67.035156 85.035156 74.871094 C 87.238281 90.707031 91.542969 113.488281 99.722656 136.148438 C 98.527344 138.863281 98.394531 142.039062 99.648438 144.988281 C 101.804688 150.074219 119.957031 191.230469 149.167969 207.824219 L 157.398438 220.519531 L 157.433594 220.574219 C 157.753906 230.542969 158.953125 240.429688 161.042969 250.09375 C 120.667969 257.511719 81.722656 275.695312 50.101562 301.894531 C 45.707031 299.195312 40.539062 297.632812 35.011719 297.632812 C 19.082031 297.632812 6.125 310.585938 6.125 326.507812 C 6.125 342.429688 19.082031 355.386719 35.011719 355.386719 C 50.941406 355.386719 63.898438 342.429688 63.898438 326.507812 C 63.898438 321.886719 62.800781 317.515625 60.859375 313.636719 C 90.628906 289.148438 127.257812 272.242188 165.167969 265.515625 C 186.582031 332.289062 249.207031 378.347656 323.269531 380.941406 C 323.945312 380.964844 324.761719 380.980469 325.707031 380.980469 C 335.121094 380.980469 356.800781 379.238281 367.707031 364.1875 C 377.976562 350.054688 375.011719 329.839844 367.910156 317.046875 " fill-opacity="1" fill-rule="nonzero"/></g></svg>