<svg xmlns="http://www.w3.org/2000/svg" xmlns:xlink="http://www.w3.org/1999/xlink" width="180" zoomAndPan="magnify" viewBox="0 0 135 58.499998" height="78" preserveAspectRatio="xMidYMid meet" version="1.0"><defs><g/><clipPath id="62ac937268"><path d="M 2 11.179688 L 34 11.179688 L 34 43 L 2 43 Z M 2 11.179688 " clip-rule="nonzero"/></clipPath><clipPath id="53fae62ec7"><path d="M 1.761719 15 L 39.6875 15 L 39.6875 49.847656 L 1.761719 49.847656 Z M 1.761719 15 " clip-rule="nonzero"/></clipPath><clipPath id="23e4cea083"><path d="M 32 27 L 134.425781 27 L 134.425781 36 L 32 36 Z M 32 27 " clip-rule="nonzero"/></clipPath></defs><g clip-path="url(#62ac937268)"><path fill="#8cc546" d="M 13.492188 40.5 L 22.765625 40.5 L 22.765625 31.535156 L 31.703125 31.535156 L 31.703125 22.230469 L 22.765625 22.230469 L 22.765625 13.265625 L 13.492188 13.265625 L 13.492188 22.230469 L 4.554688 22.230469 L 4.554688 31.535156 L 13.492188 31.535156 Z M 23.113281 42.585938 L 13.144531 42.585938 C 12.1875 42.585938 11.410156 41.804688 11.410156 40.847656 L 11.410156 33.621094 L 4.207031 33.621094 C 3.25 33.621094 2.472656 32.839844 2.472656 31.882812 L 2.472656 21.882812 C 2.472656 20.921875 3.25 20.144531 4.207031 20.144531 L 11.410156 20.144531 L 11.410156 12.917969 C 11.410156 11.957031 12.1875 11.179688 13.144531 11.179688 L 23.113281 11.179688 C 24.070312 11.179688 24.847656 11.957031 24.847656 12.917969 L 24.847656 20.144531 L 32.050781 20.144531 C 33.007812 20.144531 33.785156 20.921875 33.785156 21.882812 L 33.785156 31.882812 C 33.785156 32.839844 33.007812 33.621094 32.050781 33.621094 L 24.847656 33.621094 L 24.847656 40.847656 C 24.847656 41.804688 24.070312 42.585938 23.113281 42.585938 " fill-opacity="1" fill-rule="nonzero"/></g><path fill="#414042" d="M 4.714844 42.984375 C 4.007812 42.984375 3.429688 43.5625 3.429688 44.277344 C 3.429688 44.988281 4.007812 45.566406 4.714844 45.566406 C 5.425781 45.566406 6 44.988281 6 44.277344 C 6 43.5625 5.425781 42.984375 4.714844 42.984375 " fill-opacity="1" fill-rule="nonzero"/><g clip-path="url(#53fae62ec7)"><path fill="#1875c1" d="M 37.320312 47.175781 C 36.71875 48.003906 35.242188 48.253906 34.160156 48.21875 C 27.398438 47.980469 21.671875 43.839844 19.617188 37.808594 C 19.632812 37.808594 19.644531 37.804688 19.65625 37.804688 C 24.851562 37.285156 30.316406 38.660156 34.652344 41.578125 C 35.535156 42.171875 36.625 42.992188 37.234375 44.097656 C 37.71875 44.976562 37.914062 46.351562 37.320312 47.175781 Z M 4.714844 46.050781 C 3.742188 46.050781 2.945312 45.253906 2.945312 44.277344 C 2.945312 43.296875 3.742188 42.5 4.714844 42.5 C 5.054688 42.5 5.367188 42.597656 5.632812 42.761719 C 5.652344 42.914062 5.714844 43.066406 5.824219 43.191406 C 5.949219 43.335938 6.113281 43.425781 6.285156 43.460938 C 6.414062 43.707031 6.488281 43.980469 6.488281 44.277344 C 6.488281 45.253906 5.691406 46.050781 4.714844 46.050781 Z M 38.652344 43.308594 C 37.875 41.902344 36.589844 40.921875 35.554688 40.226562 C 30.84375 37.058594 25.140625 35.621094 19.496094 36.183594 C 19.390625 36.195312 19.28125 36.207031 19.171875 36.21875 C 18.96875 35.300781 18.851562 34.359375 18.820312 33.410156 L 19.640625 32.132812 C 22.621094 30.4375 24.46875 26.226562 24.691406 25.707031 C 24.816406 25.40625 24.804688 25.078125 24.683594 24.800781 C 25.515625 22.484375 25.953125 20.152344 26.179688 18.53125 C 26.289062 17.730469 26.050781 16.921875 25.519531 16.308594 C 24.988281 15.699219 24.21875 15.347656 23.410156 15.347656 L 22.761719 15.347656 C 22.5625 15.171875 22.304688 15.0625 22.019531 15.0625 L 21.085938 15.0625 C 20.472656 15.0625 19.972656 15.5625 19.972656 16.179688 C 19.972656 16.796875 20.472656 17.296875 21.085938 17.296875 L 22.019531 17.296875 C 22.324219 17.296875 22.601562 17.175781 22.804688 16.972656 L 23.410156 16.972656 C 23.757812 16.972656 24.070312 17.117188 24.296875 17.378906 C 24.523438 17.636719 24.621094 17.96875 24.574219 18.308594 C 24.359375 19.84375 23.949219 22.054688 23.167969 24.230469 C 22.921875 24.34375 22.714844 24.546875 22.597656 24.816406 C 22.214844 25.726562 21.160156 27.738281 19.808594 29.125 L 16.191406 29.125 C 14.839844 27.738281 13.785156 25.730469 13.394531 24.816406 C 13.28125 24.546875 13.074219 24.34375 12.824219 24.230469 C 12.046875 22.054688 11.636719 19.84375 11.421875 18.308594 C 11.375 17.96875 11.472656 17.636719 11.699219 17.378906 C 11.925781 17.117188 12.238281 16.972656 12.582031 16.972656 L 13.191406 16.972656 C 13.394531 17.175781 13.671875 17.296875 13.976562 17.296875 L 14.910156 17.296875 C 15.523438 17.296875 16.023438 16.796875 16.023438 16.179688 C 16.023438 15.5625 15.523438 15.0625 14.910156 15.0625 L 13.976562 15.0625 C 13.691406 15.0625 13.429688 15.171875 13.234375 15.347656 L 12.582031 15.347656 C 11.773438 15.347656 11.007812 15.699219 10.476562 16.308594 C 9.945312 16.921875 9.703125 17.730469 9.816406 18.53125 C 10.039062 20.152344 10.480469 22.484375 11.3125 24.800781 C 11.191406 25.078125 11.179688 25.40625 11.304688 25.707031 C 11.527344 26.226562 13.375 30.4375 16.355469 32.132812 L 17.191406 33.433594 L 17.195312 33.4375 C 17.230469 34.457031 17.351562 35.46875 17.566406 36.457031 C 13.449219 37.21875 9.476562 39.078125 6.253906 41.757812 C 5.808594 41.480469 5.28125 41.320312 4.714844 41.320312 C 3.09375 41.320312 1.773438 42.648438 1.773438 44.277344 C 1.773438 45.90625 3.09375 47.230469 4.714844 47.230469 C 6.339844 47.230469 7.660156 45.90625 7.660156 44.277344 C 7.660156 43.804688 7.550781 43.355469 7.351562 42.960938 C 10.386719 40.453125 14.121094 38.722656 17.984375 38.035156 C 20.167969 44.867188 26.550781 49.578125 34.101562 49.84375 C 34.171875 49.847656 34.253906 49.847656 34.351562 49.847656 C 35.308594 49.847656 37.519531 49.671875 38.632812 48.128906 C 39.679688 46.683594 39.375 44.617188 38.652344 43.308594 " fill-opacity="1" fill-rule="nonzero"/></g><g clip-path="url(#23e4cea083)"><path stroke-linecap="butt" transform="matrix(0.743644, -0.000369556, 0.000369556, 0.743644, 36.330979, 31.099766)" fill="none" stroke-linejoin="miter" d="M 0.00116583 0.501437 L 131.915995 0.498705 " stroke="#8cc546" stroke-width="1" stroke-opacity="1" stroke-miterlimit="4"/></g><g fill="#414042" fill-opacity="1"><g transform="translate(36.331164, 27.630907)"><g><path d="M 10.953125 -12.078125 L 6.09375 0.03125 L 4.828125 0.03125 L -0.015625 -12.078125 L 1.859375 -12.078125 L 5.46875 -3 L 9.109375 -12.078125 Z M 10.953125 -12.078125 "/></g></g></g><g fill="#414042" fill-opacity="1"><g transform="translate(47.294923, 27.630907)"><g><path d="M 10.875 0 L 9.203125 0 L 9.203125 -1.25 C 8.984375 -0.914062 8.6875 -0.644531 8.3125 -0.4375 C 7.9375 -0.238281 7.535156 -0.09375 7.109375 0 C 6.691406 0.09375 6.289062 0.144531 5.90625 0.15625 C 4.832031 0.15625 3.925781 -0.0664062 3.1875 -0.515625 C 2.445312 -0.972656 1.882812 -1.566406 1.5 -2.296875 C 1.125 -3.035156 0.9375 -3.820312 0.9375 -4.65625 C 0.9375 -5.488281 1.128906 -6.265625 1.515625 -6.984375 C 1.898438 -7.703125 2.460938 -8.28125 3.203125 -8.71875 C 3.953125 -9.164062 4.84375 -9.390625 5.875 -9.390625 C 6.257812 -9.390625 6.65625 -9.351562 7.0625 -9.28125 C 7.476562 -9.207031 7.875 -9.070312 8.25 -8.875 C 8.625 -8.675781 8.945312 -8.390625 9.21875 -8.015625 L 9.203125 -9.234375 L 10.875 -9.234375 Z M 9.203125 -4.625 C 9.203125 -5.363281 9.035156 -5.972656 8.703125 -6.453125 C 8.367188 -6.941406 7.941406 -7.304688 7.421875 -7.546875 C 6.910156 -7.796875 6.394531 -7.921875 5.875 -7.921875 C 5.207031 -7.921875 4.628906 -7.773438 4.140625 -7.484375 C 3.648438 -7.191406 3.269531 -6.800781 3 -6.3125 C 2.738281 -5.820312 2.609375 -5.269531 2.609375 -4.65625 C 2.609375 -4.082031 2.738281 -3.539062 3 -3.03125 C 3.269531 -2.519531 3.644531 -2.109375 4.125 -1.796875 C 4.601562 -1.484375 5.1875 -1.328125 5.875 -1.328125 C 6.382812 -1.328125 6.894531 -1.445312 7.40625 -1.6875 C 7.925781 -1.925781 8.351562 -2.289062 8.6875 -2.78125 C 9.03125 -3.269531 9.203125 -3.882812 9.203125 -4.625 Z M 9.203125 -4.625 "/></g></g></g><g fill="#414042" fill-opacity="1"><g transform="translate(59.437028, 27.630907)"><g><path d="M 10.328125 -3.515625 C 10.179688 -2.691406 9.867188 -2.007812 9.390625 -1.46875 C 8.910156 -0.9375 8.335938 -0.535156 7.671875 -0.265625 C 7.015625 0.00390625 6.335938 0.140625 5.640625 0.140625 C 5.046875 0.140625 4.460938 0.0390625 3.890625 -0.15625 C 3.328125 -0.363281 2.816406 -0.664062 2.359375 -1.0625 C 1.898438 -1.457031 1.535156 -1.953125 1.265625 -2.546875 C 1.003906 -3.140625 0.875 -3.832031 0.875 -4.625 C 0.875 -5.425781 1.003906 -6.125 1.265625 -6.71875 C 1.535156 -7.3125 1.898438 -7.804688 2.359375 -8.203125 C 2.828125 -8.597656 3.34375 -8.894531 3.90625 -9.09375 C 4.476562 -9.289062 5.066406 -9.390625 5.671875 -9.390625 C 6.378906 -9.390625 7.054688 -9.253906 7.703125 -8.984375 C 8.347656 -8.722656 8.910156 -8.316406 9.390625 -7.765625 C 9.867188 -7.222656 10.179688 -6.539062 10.328125 -5.71875 L 8.609375 -5.71875 C 8.398438 -6.457031 8.019531 -7.003906 7.46875 -7.359375 C 6.914062 -7.722656 6.320312 -7.90625 5.6875 -7.90625 C 5.175781 -7.90625 4.675781 -7.785156 4.1875 -7.546875 C 3.707031 -7.304688 3.3125 -6.941406 3 -6.453125 C 2.695312 -5.972656 2.546875 -5.363281 2.546875 -4.625 C 2.546875 -3.882812 2.695312 -3.269531 3 -2.78125 C 3.3125 -2.289062 3.707031 -1.925781 4.1875 -1.6875 C 4.675781 -1.445312 5.179688 -1.328125 5.703125 -1.328125 C 6.335938 -1.328125 6.925781 -1.507812 7.46875 -1.875 C 8.019531 -2.238281 8.398438 -2.785156 8.609375 -3.515625 Z M 10.328125 -3.515625 "/></g></g></g><g fill="#414042" fill-opacity="1"><g transform="translate(70.776493, 27.630907)"><g><path d="M 8.09375 -1.21875 C 7.75 -0.71875 7.328125 -0.363281 6.828125 -0.15625 C 6.328125 0.0390625 5.773438 0.140625 5.171875 0.140625 C 4.242188 0.140625 3.484375 -0.0390625 2.890625 -0.40625 C 2.296875 -0.769531 1.859375 -1.285156 1.578125 -1.953125 C 1.296875 -2.617188 1.15625 -3.390625 1.15625 -4.265625 L 1.15625 -9.328125 L 2.828125 -9.328125 L 2.828125 -4.265625 C 2.828125 -3.703125 2.894531 -3.195312 3.03125 -2.75 C 3.164062 -2.300781 3.40625 -1.953125 3.75 -1.703125 C 4.101562 -1.460938 4.617188 -1.34375 5.296875 -1.34375 C 6.171875 -1.34375 6.84375 -1.617188 7.3125 -2.171875 C 7.78125 -2.722656 8.015625 -3.40625 8.015625 -4.21875 L 8.015625 -9.328125 L 9.6875 -9.328125 L 9.6875 0 L 8.09375 0 Z M 8.09375 -1.21875 "/></g></g></g><g fill="#414042" fill-opacity="1"><g transform="translate(81.928105, 27.630907)"><g><path d="M 7.453125 -8.859375 C 7.367188 -9.210938 7.203125 -9.5 6.953125 -9.71875 C 6.703125 -9.945312 6.40625 -10.113281 6.0625 -10.21875 C 5.726562 -10.332031 5.394531 -10.390625 5.0625 -10.390625 C 4.644531 -10.390625 4.226562 -10.316406 3.8125 -10.171875 C 3.40625 -10.023438 3.078125 -9.796875 2.828125 -9.484375 C 2.734375 -9.359375 2.660156 -9.210938 2.609375 -9.046875 C 2.566406 -8.878906 2.546875 -8.710938 2.546875 -8.546875 C 2.546875 -8.085938 2.675781 -7.742188 2.9375 -7.515625 C 3.207031 -7.285156 3.550781 -7.128906 3.96875 -7.046875 C 4.382812 -6.972656 4.816406 -6.910156 5.265625 -6.859375 C 5.671875 -6.816406 6.085938 -6.742188 6.515625 -6.640625 C 6.953125 -6.546875 7.363281 -6.40625 7.75 -6.21875 C 8.144531 -6.039062 8.488281 -5.796875 8.78125 -5.484375 C 9.070312 -5.179688 9.273438 -4.796875 9.390625 -4.328125 C 9.453125 -4.035156 9.484375 -3.769531 9.484375 -3.53125 C 9.484375 -2.957031 9.351562 -2.441406 9.09375 -1.984375 C 8.832031 -1.535156 8.488281 -1.15625 8.0625 -0.84375 C 7.632812 -0.53125 7.15625 -0.289062 6.625 -0.125 C 6.101562 0.03125 5.570312 0.109375 5.03125 0.109375 C 4.582031 0.109375 4.113281 0.0390625 3.625 -0.09375 C 3.144531 -0.238281 2.695312 -0.441406 2.28125 -0.703125 C 1.863281 -0.972656 1.515625 -1.3125 1.234375 -1.71875 C 0.953125 -2.125 0.785156 -2.59375 0.734375 -3.125 L 0.71875 -3.453125 L 2.453125 -3.484375 L 2.46875 -3.234375 L 2.46875 -3.296875 C 2.519531 -2.929688 2.675781 -2.617188 2.9375 -2.359375 C 3.207031 -2.109375 3.535156 -1.921875 3.921875 -1.796875 C 4.316406 -1.671875 4.695312 -1.609375 5.0625 -1.609375 C 5.488281 -1.609375 5.90625 -1.679688 6.3125 -1.828125 C 6.726562 -1.984375 7.066406 -2.207031 7.328125 -2.5 C 7.597656 -2.789062 7.734375 -3.140625 7.734375 -3.546875 C 7.734375 -3.671875 7.71875 -3.8125 7.6875 -3.96875 C 7.613281 -4.269531 7.441406 -4.5 7.171875 -4.65625 C 6.910156 -4.8125 6.59375 -4.921875 6.21875 -4.984375 C 5.84375 -5.054688 5.457031 -5.109375 5.0625 -5.140625 C 4.59375 -5.179688 4.117188 -5.25 3.640625 -5.34375 C 3.160156 -5.445312 2.710938 -5.601562 2.296875 -5.8125 C 1.890625 -6.03125 1.550781 -6.332031 1.28125 -6.71875 C 1.019531 -7.101562 0.863281 -7.609375 0.8125 -8.234375 L 0.8125 -8.21875 C 0.8125 -8.269531 0.804688 -8.316406 0.796875 -8.359375 C 0.796875 -8.410156 0.796875 -8.457031 0.796875 -8.5 C 0.796875 -9.238281 1.019531 -9.898438 1.46875 -10.484375 C 1.863281 -11.003906 2.390625 -11.398438 3.046875 -11.671875 C 3.710938 -11.941406 4.394531 -12.078125 5.09375 -12.078125 C 5.707031 -12.078125 6.304688 -11.960938 6.890625 -11.734375 C 7.472656 -11.515625 7.96875 -11.175781 8.375 -10.71875 C 8.789062 -10.257812 9.050781 -9.664062 9.15625 -8.9375 Z M 7.453125 -8.859375 "/></g></g></g><g fill="#414042" fill-opacity="1"><g transform="translate(92.242925, 27.630907)"><g><path d="M 10.875 0 L 9.203125 0 L 9.203125 -1.25 C 8.984375 -0.914062 8.6875 -0.644531 8.3125 -0.4375 C 7.9375 -0.238281 7.535156 -0.09375 7.109375 0 C 6.691406 0.09375 6.289062 0.144531 5.90625 0.15625 C 4.832031 0.15625 3.925781 -0.0664062 3.1875 -0.515625 C 2.445312 -0.972656 1.882812 -1.566406 1.5 -2.296875 C 1.125 -3.035156 0.9375 -3.820312 0.9375 -4.65625 C 0.9375 -5.488281 1.128906 -6.265625 1.515625 -6.984375 C 1.898438 -7.703125 2.460938 -8.28125 3.203125 -8.71875 C 3.953125 -9.164062 4.84375 -9.390625 5.875 -9.390625 C 6.257812 -9.390625 6.65625 -9.351562 7.0625 -9.28125 C 7.476562 -9.207031 7.875 -9.070312 8.25 -8.875 C 8.625 -8.675781 8.945312 -8.390625 9.21875 -8.015625 L 9.203125 -9.234375 L 10.875 -9.234375 Z M 9.203125 -4.625 C 9.203125 -5.363281 9.035156 -5.972656 8.703125 -6.453125 C 8.367188 -6.941406 7.941406 -7.304688 7.421875 -7.546875 C 6.910156 -7.796875 6.394531 -7.921875 5.875 -7.921875 C 5.207031 -7.921875 4.628906 -7.773438 4.140625 -7.484375 C 3.648438 -7.191406 3.269531 -6.800781 3 -6.3125 C 2.738281 -5.820312 2.609375 -5.269531 2.609375 -4.65625 C 2.609375 -4.082031 2.738281 -3.539062 3 -3.03125 C 3.269531 -2.519531 3.644531 -2.109375 4.125 -1.796875 C 4.601562 -1.484375 5.1875 -1.328125 5.875 -1.328125 C 6.382812 -1.328125 6.894531 -1.445312 7.40625 -1.6875 C 7.925781 -1.925781 8.351562 -2.289062 8.6875 -2.78125 C 9.03125 -3.269531 9.203125 -3.882812 9.203125 -4.625 Z M 9.203125 -4.625 "/></g></g></g><g fill="#414042" fill-opacity="1"><g transform="translate(104.385033, 27.630907)"><g><path d="M 1.28125 0 L 1.28125 -11.953125 L 2.953125 -11.953125 L 2.953125 0 Z M 1.28125 0 "/></g></g></g><g fill="#414042" fill-opacity="1"><g transform="translate(108.773963, 27.630907)"><g><path d="M 8.09375 -1.21875 C 7.75 -0.71875 7.328125 -0.363281 6.828125 -0.15625 C 6.328125 0.0390625 5.773438 0.140625 5.171875 0.140625 C 4.242188 0.140625 3.484375 -0.0390625 2.890625 -0.40625 C 2.296875 -0.769531 1.859375 -1.285156 1.578125 -1.953125 C 1.296875 -2.617188 1.15625 -3.390625 1.15625 -4.265625 L 1.15625 -9.328125 L 2.828125 -9.328125 L 2.828125 -4.265625 C 2.828125 -3.703125 2.894531 -3.195312 3.03125 -2.75 C 3.164062 -2.300781 3.40625 -1.953125 3.75 -1.703125 C 4.101562 -1.460938 4.617188 -1.34375 5.296875 -1.34375 C 6.171875 -1.34375 6.84375 -1.617188 7.3125 -2.171875 C 7.78125 -2.722656 8.015625 -3.40625 8.015625 -4.21875 L 8.015625 -9.328125 L 9.6875 -9.328125 L 9.6875 0 L 8.09375 0 Z M 8.09375 -1.21875 "/></g></g></g><g fill="#414042" fill-opacity="1"><g transform="translate(119.925571, 27.630907)"><g><path d="M 10.359375 -11.953125 L 10.359375 0 L 8.6875 0 L 8.6875 -1.25 C 8.363281 -0.75 7.910156 -0.390625 7.328125 -0.171875 C 6.753906 0.0351562 6.179688 0.144531 5.609375 0.15625 C 4.535156 0.15625 3.628906 -0.0507812 2.890625 -0.46875 C 2.160156 -0.894531 1.609375 -1.472656 1.234375 -2.203125 C 0.867188 -2.929688 0.6875 -3.75 0.6875 -4.65625 C 0.6875 -5.550781 0.875 -6.351562 1.25 -7.0625 C 1.632812 -7.769531 2.191406 -8.332031 2.921875 -8.75 C 3.660156 -9.175781 4.546875 -9.390625 5.578125 -9.390625 C 6.148438 -9.390625 6.710938 -9.300781 7.265625 -9.125 C 7.816406 -8.945312 8.289062 -8.585938 8.6875 -8.046875 L 8.6875 -11.953125 Z M 8.6875 -4.625 C 8.6875 -5.363281 8.535156 -5.972656 8.234375 -6.453125 C 7.929688 -6.941406 7.546875 -7.304688 7.078125 -7.546875 C 6.609375 -7.796875 6.109375 -7.921875 5.578125 -7.921875 C 4.898438 -7.921875 4.320312 -7.757812 3.84375 -7.4375 C 3.363281 -7.125 2.992188 -6.71875 2.734375 -6.21875 C 2.484375 -5.71875 2.359375 -5.1875 2.359375 -4.625 C 2.359375 -4 2.484375 -3.4375 2.734375 -2.9375 C 2.984375 -2.4375 3.347656 -2.039062 3.828125 -1.75 C 4.316406 -1.46875 4.894531 -1.328125 5.5625 -1.328125 C 6.09375 -1.328125 6.59375 -1.445312 7.0625 -1.6875 C 7.539062 -1.925781 7.929688 -2.289062 8.234375 -2.78125 C 8.535156 -3.269531 8.6875 -3.882812 8.6875 -4.625 Z M 8.6875 -4.625 "/></g></g></g><g fill="#414042" fill-opacity="1"><g transform="translate(131.761639, 27.630907)"><g/></g></g><g fill="#1875c1" fill-opacity="1"><g transform="translate(38.782586, 40.035881)"><g><path d="M 0.4375 0 L 0.4375 -4.46875 L 2.078125 -4.46875 C 2.441406 -4.46875 2.738281 -4.40625 2.96875 -4.28125 C 3.207031 -4.164062 3.382812 -4.003906 3.5 -3.796875 C 3.613281 -3.585938 3.671875 -3.351562 3.671875 -3.09375 C 3.671875 -2.84375 3.613281 -2.613281 3.5 -2.40625 C 3.382812 -2.207031 3.210938 -2.046875 2.984375 -1.921875 C 2.753906 -1.796875 2.453125 -1.734375 2.078125 -1.734375 L 1.25 -1.734375 L 1.25 0 Z M 1.25 -2.390625 L 2.03125 -2.390625 C 2.3125 -2.390625 2.515625 -2.453125 2.640625 -2.578125 C 2.773438 -2.703125 2.84375 -2.875 2.84375 -3.09375 C 2.84375 -3.3125 2.773438 -3.484375 2.640625 -3.609375 C 2.515625 -3.734375 2.3125 -3.796875 2.03125 -3.796875 L 1.25 -3.796875 Z M 1.25 -2.390625 "/></g></g></g><g fill="#1875c1" fill-opacity="1"><g transform="translate(44.080244, 40.035881)"><g><path d="M 0.4375 0 L 0.4375 -4.46875 L 2.078125 -4.46875 C 2.429688 -4.46875 2.722656 -4.40625 2.953125 -4.28125 C 3.179688 -4.15625 3.351562 -3.988281 3.46875 -3.78125 C 3.582031 -3.582031 3.640625 -3.359375 3.640625 -3.109375 C 3.640625 -2.835938 3.566406 -2.585938 3.421875 -2.359375 C 3.285156 -2.128906 3.066406 -1.96875 2.765625 -1.875 L 3.6875 0 L 2.75 0 L 1.921875 -1.765625 L 1.25 -1.765625 L 1.25 0 Z M 1.25 -2.359375 L 2.015625 -2.359375 C 2.285156 -2.359375 2.484375 -2.421875 2.609375 -2.546875 C 2.742188 -2.679688 2.8125 -2.859375 2.8125 -3.078125 C 2.8125 -3.285156 2.75 -3.453125 2.625 -3.578125 C 2.5 -3.710938 2.296875 -3.78125 2.015625 -3.78125 L 1.25 -3.78125 Z M 1.25 -2.359375 "/></g></g></g><g fill="#1875c1" fill-opacity="1"><g transform="translate(49.479766, 40.035881)"><g><path d="M 2.53125 0.078125 C 2.082031 0.078125 1.691406 -0.0195312 1.359375 -0.21875 C 1.023438 -0.414062 0.757812 -0.6875 0.5625 -1.03125 C 0.375 -1.375 0.28125 -1.773438 0.28125 -2.234375 C 0.28125 -2.679688 0.375 -3.078125 0.5625 -3.421875 C 0.757812 -3.773438 1.023438 -4.046875 1.359375 -4.234375 C 1.691406 -4.429688 2.082031 -4.53125 2.53125 -4.53125 C 2.96875 -4.53125 3.351562 -4.429688 3.6875 -4.234375 C 4.019531 -4.046875 4.28125 -3.773438 4.46875 -3.421875 C 4.65625 -3.078125 4.75 -2.679688 4.75 -2.234375 C 4.75 -1.773438 4.65625 -1.375 4.46875 -1.03125 C 4.28125 -0.6875 4.019531 -0.414062 3.6875 -0.21875 C 3.351562 -0.0195312 2.96875 0.078125 2.53125 0.078125 Z M 2.53125 -0.65625 C 2.945312 -0.65625 3.28125 -0.796875 3.53125 -1.078125 C 3.789062 -1.359375 3.921875 -1.742188 3.921875 -2.234375 C 3.921875 -2.722656 3.789062 -3.109375 3.53125 -3.390625 C 3.28125 -3.671875 2.945312 -3.8125 2.53125 -3.8125 C 2.101562 -3.8125 1.757812 -3.671875 1.5 -3.390625 C 1.25 -3.109375 1.125 -2.722656 1.125 -2.234375 C 1.125 -1.742188 1.25 -1.359375 1.5 -1.078125 C 1.757812 -0.796875 2.101562 -0.65625 2.53125 -0.65625 Z M 2.53125 -0.65625 "/></g></g></g><g fill="#1875c1" fill-opacity="1"><g transform="translate(55.948826, 40.035881)"><g><path d="M 1.46875 0 L 1.46875 -3.8125 L 0.171875 -3.8125 L 0.171875 -4.46875 L 3.59375 -4.46875 L 3.59375 -3.8125 L 2.28125 -3.8125 L 2.28125 0 Z M 1.46875 0 "/></g></g></g><g fill="#1875c1" fill-opacity="1"><g transform="translate(61.144624, 40.035881)"><g><path d="M 0.4375 0 L 0.4375 -4.46875 L 3.34375 -4.46875 L 3.34375 -3.8125 L 1.25 -3.8125 L 1.25 -2.578125 L 3.15625 -2.578125 L 3.15625 -1.9375 L 1.25 -1.9375 L 1.25 -0.65625 L 3.34375 -0.65625 L 3.34375 0 Z M 0.4375 0 "/></g></g></g><g fill="#1875c1" fill-opacity="1"><g transform="translate(66.25766, 40.035881)"><g><path d="M 2.390625 0.078125 C 1.960938 0.078125 1.59375 -0.015625 1.28125 -0.203125 C 0.96875 -0.398438 0.722656 -0.671875 0.546875 -1.015625 C 0.367188 -1.359375 0.28125 -1.753906 0.28125 -2.203125 C 0.28125 -2.660156 0.367188 -3.066406 0.546875 -3.421875 C 0.734375 -3.773438 0.992188 -4.046875 1.328125 -4.234375 C 1.660156 -4.429688 2.054688 -4.53125 2.515625 -4.53125 C 3.035156 -4.53125 3.46875 -4.40625 3.8125 -4.15625 C 4.15625 -3.90625 4.378906 -3.5625 4.484375 -3.125 L 3.578125 -3.125 C 3.503906 -3.332031 3.378906 -3.492188 3.203125 -3.609375 C 3.023438 -3.722656 2.796875 -3.78125 2.515625 -3.78125 C 2.066406 -3.78125 1.722656 -3.640625 1.484375 -3.359375 C 1.242188 -3.078125 1.125 -2.691406 1.125 -2.203125 C 1.125 -1.703125 1.242188 -1.316406 1.484375 -1.046875 C 1.722656 -0.785156 2.046875 -0.65625 2.453125 -0.65625 C 2.859375 -0.65625 3.164062 -0.765625 3.375 -0.984375 C 3.582031 -1.203125 3.707031 -1.488281 3.75 -1.84375 L 2.625 -1.84375 L 2.625 -2.453125 L 4.578125 -2.453125 L 4.578125 0 L 3.8125 0 L 3.75 -0.59375 C 3.601562 -0.375 3.421875 -0.207031 3.203125 -0.09375 C 2.992188 0.0195312 2.722656 0.078125 2.390625 0.078125 Z M 2.390625 0.078125 "/></g></g></g><g fill="#1875c1" fill-opacity="1"><g transform="translate(72.612127, 40.035881)"><g><path d="M 0.4375 0 L 0.4375 -4.46875 L 3.34375 -4.46875 L 3.34375 -3.8125 L 1.25 -3.8125 L 1.25 -2.578125 L 3.15625 -2.578125 L 3.15625 -1.9375 L 1.25 -1.9375 L 1.25 -0.65625 L 3.34375 -0.65625 L 3.34375 0 Z M 0.4375 0 "/></g></g></g><g fill="#1875c1" fill-opacity="1"><g transform="translate(77.725162, 40.035881)"><g/></g></g><g fill="#1875c1" fill-opacity="1"><g transform="translate(80.673654, 40.035881)"><g><path d="M 0.4375 0 L 0.4375 -4.46875 L 1.25 -4.46875 L 1.25 -2.609375 L 3.25 -2.609375 L 3.25 -4.46875 L 4.0625 -4.46875 L 4.0625 0 L 3.25 0 L 3.25 -1.9375 L 1.25 -1.9375 L 1.25 0 Z M 0.4375 0 "/></g></g></g><g fill="#1875c1" fill-opacity="1"><g transform="translate(86.601577, 40.035881)"><g><path d="M 2.53125 0.078125 C 2.082031 0.078125 1.691406 -0.0195312 1.359375 -0.21875 C 1.023438 -0.414062 0.757812 -0.6875 0.5625 -1.03125 C 0.375 -1.375 0.28125 -1.773438 0.28125 -2.234375 C 0.28125 -2.679688 0.375 -3.078125 0.5625 -3.421875 C 0.757812 -3.773438 1.023438 -4.046875 1.359375 -4.234375 C 1.691406 -4.429688 2.082031 -4.53125 2.53125 -4.53125 C 2.96875 -4.53125 3.351562 -4.429688 3.6875 -4.234375 C 4.019531 -4.046875 4.28125 -3.773438 4.46875 -3.421875 C 4.65625 -3.078125 4.75 -2.679688 4.75 -2.234375 C 4.75 -1.773438 4.65625 -1.375 4.46875 -1.03125 C 4.28125 -0.6875 4.019531 -0.414062 3.6875 -0.21875 C 3.351562 -0.0195312 2.96875 0.078125 2.53125 0.078125 Z M 2.53125 -0.65625 C 2.945312 -0.65625 3.28125 -0.796875 3.53125 -1.078125 C 3.789062 -1.359375 3.921875 -1.742188 3.921875 -2.234375 C 3.921875 -2.722656 3.789062 -3.109375 3.53125 -3.390625 C 3.28125 -3.671875 2.945312 -3.8125 2.53125 -3.8125 C 2.101562 -3.8125 1.757812 -3.671875 1.5 -3.390625 C 1.25 -3.109375 1.125 -2.722656 1.125 -2.234375 C 1.125 -1.742188 1.25 -1.359375 1.5 -1.078125 C 1.757812 -0.796875 2.101562 -0.65625 2.53125 -0.65625 Z M 2.53125 -0.65625 "/></g></g></g><g fill="#1875c1" fill-opacity="1"><g transform="translate(93.070636, 40.035881)"><g><path d="M 1.59375 0 L 1.59375 -1.59375 L 0.09375 -4.46875 L 1.015625 -4.46875 L 2 -2.40625 L 2.984375 -4.46875 L 3.890625 -4.46875 L 2.40625 -1.59375 L 2.40625 0 Z M 1.59375 0 "/></g></g></g></svg>